<svg width="1399" height="1070" xmlns="http://www.w3.org/2000/svg" xmlns:xlink="http://www.w3.org/1999/xlink" xml:space="preserve" overflow="hidden"><g transform="translate(-204 -300)"><rect x="396.5" y="571.5" width="94.0002" height="88" stroke="#042433" stroke-width="6.875" stroke-miterlimit="8" fill="#00B050"/><text font-family="Aptos,Aptos_MSFontService,sans-serif" font-weight="700" font-size="83" transform="matrix(1 0 0 1 253.69 401)">5</text><text font-family="Aptos,Aptos_MSFontService,sans-serif" font-weight="700" font-size="83" transform="matrix(1 0 0 1 297.805 401)">-</text><text font-family="Aptos,Aptos_MSFontService,sans-serif" font-weight="700" font-size="83" transform="matrix(1 0 0 1 325.878 401)">fold </text><text font-family="Aptos,Aptos_MSFontService,sans-serif" font-weight="700" font-size="83" transform="matrix(1 0 0 1 489.663 401)">cross validation</text><path d="M419.417 520.208 830.655 520.209 830.655 524.792 419.417 524.792ZM424 536.25 396.5 522.5 424 508.75ZM826.072 508.75 853.572 522.5 826.072 536.25Z" fill="#156082"/><text font-family="Aptos,Aptos_MSFontService,sans-serif" font-weight="400" font-size="64" transform="matrix(1 0 0 1 476.562 498)">Training Set</text><text fill="#009BBD" font-family="Aptos,Aptos_MSFontService,sans-serif" font-weight="700" font-size="83" transform="matrix(1 0 0 1 480.204 1198)">Training</text><text fill="#00B050" font-family="Aptos,Aptos_MSFontService,sans-serif" font-weight="700" font-size="83" transform="matrix(1 0 0 1 437.762 1297)">Validation</text><rect x="490.5" y="571.5" width="94.9998" height="88" stroke="#042433" stroke-width="6.875" stroke-miterlimit="8" fill="#009BBD"/><rect x="580.5" y="571.5" width="93.9998" height="88" stroke="#042433" stroke-width="6.875" stroke-miterlimit="8" fill="#009BBD"/><rect x="669.5" y="571.5" width="94.9999" height="88" stroke="#042433" stroke-width="6.875" stroke-miterlimit="8" fill="#009BBD"/><rect x="759.5" y="571.5" width="94.0002" height="88" stroke="#042433" stroke-width="6.875" stroke-miterlimit="8" fill="#009BBD"/><rect x="396.5" y="678.5" width="94.0002" height="88" stroke="#042433" stroke-width="6.875" stroke-miterlimit="8" fill="#009BBD"/><rect x="490.5" y="678.5" width="94.9998" height="88" stroke="#042433" stroke-width="6.875" stroke-miterlimit="8" fill="#00B050"/><rect x="580.5" y="678.5" width="93.9998" height="88" stroke="#042433" stroke-width="6.875" stroke-miterlimit="8" fill="#009BBD"/><rect x="669.5" y="678.5" width="94.9999" height="88" stroke="#042433" stroke-width="6.875" stroke-miterlimit="8" fill="#009BBD"/><rect x="759.5" y="678.5" width="94.0002" height="88" stroke="#042433" stroke-width="6.875" stroke-miterlimit="8" fill="#009BBD"/><rect x="396.5" y="785.5" width="94.0002" height="88" stroke="#042433" stroke-width="6.875" stroke-miterlimit="8" fill="#009BBD"/><rect x="490.5" y="785.5" width="94.9998" height="88" stroke="#042433" stroke-width="6.875" stroke-miterlimit="8" fill="#009BBD"/><rect x="580.5" y="785.5" width="93.9998" height="88" stroke="#042433" stroke-width="6.875" stroke-miterlimit="8" fill="#00B050"/><rect x="669.5" y="785.5" width="94.9999" height="88" stroke="#042433" stroke-width="6.875" stroke-miterlimit="8" fill="#009BBD"/><rect x="759.5" y="785.5" width="94.0002" height="88" stroke="#042433" stroke-width="6.875" stroke-miterlimit="8" fill="#009BBD"/><rect x="396.5" y="892.5" width="94.0002" height="88" stroke="#042433" stroke-width="6.875" stroke-miterlimit="8" fill="#009BBD"/><rect x="490.5" y="892.5" width="94.9998" height="88" stroke="#042433" stroke-width="6.875" stroke-miterlimit="8" fill="#009BBD"/><rect x="580.5" y="892.5" width="93.9998" height="88" stroke="#042433" stroke-width="6.875" stroke-miterlimit="8" fill="#009BBD"/><rect x="669.5" y="892.5" width="94.9999" height="88" stroke="#042433" stroke-width="6.875" stroke-miterlimit="8" fill="#00B050"/><rect x="759.5" y="892.5" width="94.0002" height="88" stroke="#042433" stroke-width="6.875" stroke-miterlimit="8" fill="#009BBD"/><rect x="396.5" y="999.5" width="94.0002" height="88" stroke="#042433" stroke-width="6.875" stroke-miterlimit="8" fill="#009BBD"/><rect x="490.5" y="999.5" width="94.9998" height="88" stroke="#042433" stroke-width="6.875" stroke-miterlimit="8" fill="#009BBD"/><rect x="580.5" y="999.5" width="93.9998" height="88" stroke="#042433" stroke-width="6.875" stroke-miterlimit="8" fill="#009BBD"/><rect x="669.5" y="999.5" width="94.9999" height="88" stroke="#042433" stroke-width="6.875" stroke-miterlimit="8" fill="#009BBD"/><rect x="759.5" y="999.5" width="94.0002" height="88" stroke="#042433" stroke-width="6.875" stroke-miterlimit="8" fill="#00B050"/><text font-family="Aptos,Aptos_MSFontService,sans-serif" font-weight="700" font-size="73" transform="matrix(1 0 0 1 889.063 636)">Score</text><text font-family="Aptos,Aptos_MSFontService,sans-serif" font-weight="700" font-size="49" transform="matrix(1 0 0 1 1081.88 653)">1</text><text font-family="Aptos,Aptos_MSFontService,sans-serif" font-weight="700" font-size="73" transform="matrix(1 0 0 1 889.063 739)">Score</text><text font-family="Aptos,Aptos_MSFontService,sans-serif" font-weight="700" font-size="49" transform="matrix(1 0 0 1 1081.88 756)">2</text><text font-family="Aptos,Aptos_MSFontService,sans-serif" font-weight="700" font-size="73" transform="matrix(1 0 0 1 898.043 852)">Score</text><text font-family="Aptos,Aptos_MSFontService,sans-serif" font-weight="700" font-size="49" transform="matrix(1 0 0 1 1090.86 869)">3</text><text font-family="Aptos,Aptos_MSFontService,sans-serif" font-weight="700" font-size="73" transform="matrix(1 0 0 1 898.043 961)">Score</text><text font-family="Aptos,Aptos_MSFontService,sans-serif" font-weight="700" font-size="49" transform="matrix(1 0 0 1 1090.86 978)">4</text><text font-family="Aptos,Aptos_MSFontService,sans-serif" font-weight="700" font-size="73" transform="matrix(1 0 0 1 898.043 1066)">Score</text><text font-family="Aptos,Aptos_MSFontService,sans-serif" font-weight="700" font-size="49" transform="matrix(1 0 0 1 1090.86 1083)">5</text><path d="M1120.5 557.5C1143.7 557.5 1162.5 560.634 1162.5 564.499L1162.5 841.501C1162.5 845.366 1181.3 848.5 1204.5 848.5 1181.3 848.5 1162.5 851.634 1162.5 855.499L1162.5 1132.5C1162.5 1136.37 1143.7 1139.5 1120.5 1139.5" stroke="#156082" stroke-width="3.4375" stroke-miterlimit="8" fill="none" fill-rule="evenodd"/><text font-family="Aptos,Aptos_MSFontService,sans-serif" font-weight="700" font-size="73" transform="matrix(1 0 0 1 1232.99 871)">Score </text><text font-family="Aptos,Aptos_MSFontService,sans-serif" font-weight="700" font-size="49" transform="matrix(1 0 0 1 1440.71 888)">mean</text></g></svg>